<?xml version="1.0" standalone="no"?>
<!DOCTYPE svg PUBLIC "-//W3C//DTD SVG 20010904//EN"
 "http://www.w3.org/TR/2001/REC-SVG-20010904/DTD/svg10.dtd">
<svg version="1.0" xmlns="http://www.w3.org/2000/svg"
 width="251.000000pt" height="201.000000pt" viewBox="0 0 251.000000 201.000000"
 preserveAspectRatio="xMidYMid meet">

<g transform="translate(0.000000,201.000000) scale(0.100000,-0.100000)"
fill="#000000" stroke="none">
<path d="M950 1336 c-15 -9 -56 -68 -105 -153 -104 -181 -104 -175 0 -356 81
-141 106 -167 158 -167 47 0 85 49 187 241 5 10 4 21 -3 28 -15 15 -44 14 -50
-1 -4 -8 -6 -7 -6 4 -1 14 -6 15 -33 8 -18 -5 -57 -8 -87 -6 -50 3 -56 6 -75
38 l-20 35 83 149 83 148 -26 23 c-30 26 -69 29 -106 9z"/>
<path d="M1451 1323 c-35 -33 -125 -198 -118 -216 3 -9 28 -12 91 -9 97 4 133
-11 155 -67 14 -33 10 -44 -92 -220 l-60 -105 27 -23 c15 -13 38 -23 52 -23
53 0 77 25 159 167 104 181 104 175 0 356 -82 142 -106 167 -159 167 -14 0
-39 -12 -55 -27z"/>
</g>
</svg>
