<?xml version="1.0" encoding="UTF-8"?>
<svg version="1.1" xmlns="http://www.w3.org/2000/svg" width="251" height="201">
<path d="M0 0 C2.40780203 2.77383369 4.19683468 5.80938471 6 9 C6.41636719 9.70898438 6.83273438 10.41796875 7.26171875 11.1484375 C8.19536664 12.75365668 9.10110088 14.37506697 10 16 C10.7734375 15.5359375 10.7734375 15.5359375 11.5625 15.0625 C15.93502097 13.15652932 19.48622541 12.4170695 24.00512695 14.15722656 C27.3814199 16.23469124 28.60228622 17.87464632 30.54296875 21.296875 C31.14173828 22.3384375 31.74050781 23.38 32.35742188 24.453125 C32.96134766 25.54109375 33.56527344 26.6290625 34.1875 27.75 C35.11079102 29.35875 35.11079102 29.35875 36.05273438 31 C37.74565643 33.97866243 39.38989099 36.97588844 41 40 C41.37205566 40.69802734 41.74411133 41.39605469 42.12744141 42.11523438 C44.09722109 46.17769548 44.36758335 48.70716115 43 53 C41.42597826 56.36244511 39.64270298 59.58372294 37.8125 62.8125 C37.34263672 63.66392578 36.87277344 64.51535156 36.38867188 65.39257812 C34.00783219 69.65730187 31.53787115 73.86970913 28.94921875 78.01171875 C28.50280029 78.73190186 28.05638184 79.45208496 27.59643555 80.1940918 C25.58498398 82.46947141 23.89827148 83.15748893 21 84 C14.74640752 83.67653832 14.74640752 83.67653832 12.2890625 81.44921875 C11.86367187 80.97097656 11.43828125 80.49273437 11 80 C10.35933594 81.12019531 9.71867187 82.24039063 9.05859375 83.39453125 C8.18590248 84.86778426 7.31214804 86.34040785 6.4375 87.8125 C6.01919922 88.55048828 5.60089844 89.28847656 5.16992188 90.04882812 C2.08850042 95.16908482 -0.21283356 97.32740854 -6 99 C-9.5 98.8125 -9.5 98.8125 -13 97 C-17.44875785 91.90500153 -20.78006134 85.92468714 -24 80 C-24.350625 80.474375 -24.70125 80.94875 -25.0625 81.4375 C-27.96986612 83.7821501 -30.30958661 83.87490124 -34 84 C-38.85322905 82.12722455 -40.99481295 80.19658117 -43.54296875 75.703125 C-44.44112305 74.14078125 -44.44112305 74.14078125 -45.35742188 72.546875 C-46.26331055 70.91492188 -46.26331055 70.91492188 -47.1875 69.25 C-47.80302734 68.1775 -48.41855469 67.105 -49.05273438 66 C-50.74565643 63.02133757 -52.38989099 60.02411156 -54 57 C-54.37205566 56.30197266 -54.74411133 55.60394531 -55.12744141 54.88476562 C-57.10412315 50.80806976 -57.00454103 48.3491636 -56 44 C-54.86425781 41.41040039 -54.86425781 41.41040039 -53.453125 38.84765625 C-52.9375 37.90599609 -52.421875 36.96433594 -51.890625 35.99414062 C-51.34921875 35.02669922 -50.8078125 34.05925781 -50.25 33.0625 C-49.7240625 32.09892578 -49.198125 31.13535156 -48.65625 30.14257812 C-40.95894688 16.20550577 -40.95894688 16.20550577 -36.5625 13.5 C-31.55973821 12.52385136 -27.58236141 14.11132401 -23 16 C-22.46890625 15.02417969 -21.9378125 14.04835938 -21.390625 13.04296875 C-20.67754842 11.75755439 -19.96398083 10.47241232 -19.25 9.1875 C-18.72792969 8.22360352 -18.72792969 8.22360352 -18.1953125 7.24023438 C-15.79328868 2.94772884 -13.68586824 0.2040099 -9.1875 -1.8125 C-5.52002034 -2.1268554 -3.38235741 -1.51622918 0 0 Z " fill="#0AC7FD" transform="translate(132,52)"/>
<path d="M0 0 C5.47188227 4.3515815 8.3600953 10.46319103 11.6875 16.5 C12.26822266 17.53253906 12.84894531 18.56507812 13.44726562 19.62890625 C20.02965106 31.42393217 20.02965106 31.42393217 19.94921875 35.69921875 C18.57964335 40.46173404 16.24798531 44.51590601 13.8125 48.8125 C13.34263672 49.66392578 12.87277344 50.51535156 12.38867188 51.39257812 C10.00783219 55.65730187 7.53787115 59.86970913 4.94921875 64.01171875 C4.27959106 65.09199341 4.27959106 65.09199341 3.59643555 66.1940918 C1.58498398 68.46947141 -0.10172852 69.15748893 -3 70 C-6.48089006 69.81995396 -9.02232192 69.6110488 -12 67.75 C-13 66 -13 66 -12.76220703 63.73388672 C-11.8816486 60.57549681 -10.54928271 58.28280478 -8.8046875 55.5078125 C-8.17175781 54.47269531 -7.53882813 53.43757813 -6.88671875 52.37109375 C-5.54689116 50.20915835 -4.19792645 48.05285858 -2.83984375 45.90234375 C1.16261132 39.85534032 1.16261132 39.85534032 2.08984375 32.91796875 C0.75321646 29.33925697 -1.18321719 27.52788201 -4 25 C-4 24.34 -4 23.68 -4 23 C-4.66 23 -5.32 23 -6 23 C-6 22.01 -6 21.02 -6 20 C-7.65 20.66 -9.3 21.32 -11 22 C-10.67 19.36 -10.34 16.72 -10 14 C-11.32 14 -12.64 14 -14 14 C-14.0825 14.61875 -14.165 15.2375 -14.25 15.875 C-14.62125 16.926875 -14.62125 16.926875 -15 18 C-15.91845703 18.43699219 -15.91845703 18.43699219 -16.85546875 18.8828125 C-19.42398238 20.22087242 -20.42893024 21.6302348 -22.0625 24 C-23.98852828 26.77920261 -25.11204349 28.07469566 -28 30 C-23.08845227 19.9812751 -17.24542629 8.48685447 -10 0 C-6.1544104 -1.2818632 -3.93271581 -0.94927623 0 0 Z " fill="#2B4FF9" transform="translate(156,66)"/>
<path d="M0 0 C2.375 2.0625 2.375 2.0625 4 4 C2.63575775 7.65894871 0.97497975 10.89582168 -1.0390625 14.23828125 C-1.90917969 15.71651367 -1.90917969 15.71651367 -2.796875 17.22460938 C-4.01253255 19.27797966 -5.23907471 21.32494596 -6.4765625 23.36523438 C-9.90616723 29.24072909 -11.83295811 33.16484374 -11 40 C-10.34 40 -9.68 40 -9 40 C-8.87625 40.928125 -8.87625 40.928125 -8.75 41.875 C-8.5025 42.57625 -8.255 43.2775 -8 44 C-7.360625 44.268125 -6.72125 44.53625 -6.0625 44.8125 C-2.87100827 46.65002554 -2.97780673 49.57767643 -2 53 C0.00016466 54.20882096 0.00016466 54.20882096 2 55 C2.75 57.125 2.75 57.125 3 59 C3.99 58.34 4.98 57.68 6 57 C5.67 56.01 5.34 55.02 5 54 C5.495 53.01 5.495 53.01 6 52 C6.99 52 7.98 52 9 52 C9.33 51.01 9.66 50.02 10 49 C10.66 49 11.32 49 12 49 C12.0825 48.29875 12.165 47.5975 12.25 46.875 C13.17027725 43.34727053 14.88126977 40.93888386 17 38 C17.99 38.495 17.99 38.495 19 39 C18.67 40.32 18.34 41.64 18 43 C17.34 43 16.68 43 16 43 C15.72003174 43.73138184 15.44006348 44.46276367 15.15161133 45.21630859 C13.35607531 49.55650399 11.01201769 53.55014826 8.6875 57.625 C8.21376953 58.48351562 7.74003906 59.34203125 7.25195312 60.2265625 C2.71099651 68.17789557 2.71099651 68.17789557 -2 70 C-5.97865946 70 -8.17354051 69.66229012 -11.30078125 67.15625 C-15.31952792 62.91990364 -17.8901113 57.5752171 -20.6875 52.5 C-21.26822266 51.46746094 -21.84894531 50.43492188 -22.44726562 49.37109375 C-29.67346427 36.42241409 -29.67346427 36.42241409 -28 30 C-26.86425781 27.41040039 -26.86425781 27.41040039 -25.453125 24.84765625 C-24.9375 23.90599609 -24.421875 22.96433594 -23.890625 21.99414062 C-23.34921875 21.02669922 -22.8078125 20.05925781 -22.25 19.0625 C-21.46109375 17.61713867 -21.46109375 17.61713867 -20.65625 16.14257812 C-12.95894688 2.20550577 -12.95894688 2.20550577 -8.5625 -0.5 C-5.31538068 -1.13358426 -3.17477436 -0.94567747 0 0 Z " fill="#284DFA" transform="translate(104,66)"/>
<path d="M0 0 C0.66 0 1.32 0 2 0 C2 0.66 2 1.32 2 2 C2.59683594 2.04640625 3.19367188 2.0928125 3.80859375 2.140625 C7.11240599 3.43623764 7.61575378 5.58644827 9.0625 8.75 C10.51362868 11.87550792 11.90528376 14.84997965 13.74609375 17.765625 C14.15988281 18.50296875 14.57367188 19.2403125 15 20 C14.67 20.66 14.34 21.32 14 22 C11 18.25 11 18.25 11 16 C10.34 16 9.68 16 9 16 C9 15.01 9 14.02 9 13 C7.35 13.66 5.7 14.32 4 15 C4.33 12.36 4.66 9.72 5 7 C3.68 7 2.36 7 1 7 C0.9175 7.61875 0.835 8.2375 0.75 8.875 C0.5025 9.57625 0.255 10.2775 0 11 C-0.91845703 11.43699219 -0.91845703 11.43699219 -1.85546875 11.8828125 C-4.42398238 13.22087242 -5.42893024 14.6302348 -7.0625 17 C-8.98852828 19.77920261 -10.11204349 21.07469566 -13 23 C-11.65643175 20.24827995 -10.21333846 17.59501834 -8.65234375 14.9609375 C-7.99202148 13.84332031 -7.99202148 13.84332031 -7.31835938 12.703125 C-6.86267578 11.93484375 -6.40699219 11.1665625 -5.9375 10.375 C-5.02936656 8.84148996 -4.12178782 7.30765125 -3.21484375 5.7734375 C-2.81386475 5.09716309 -2.41288574 4.42088867 -1.99975586 3.72412109 C-1.29294774 2.50520072 -0.63013405 1.2602681 0 0 Z " fill="#206FFD" transform="translate(141,73)"/>
<path d="M0 0 C0.66 0.33 1.32 0.66 2 1 C1.67 2.32 1.34 3.64 1 5 C0.34 5 -0.32 5 -1 5 C-1.23460938 5.65355469 -1.46921875 6.30710937 -1.7109375 6.98046875 C-3.39755459 10.93124152 -5.49426475 14.58704258 -7.625 18.3125 C-8.04523438 19.05306641 -8.46546875 19.79363281 -8.8984375 20.55664062 C-9.92948495 22.37269011 -10.96436046 24.18656533 -12 26 C-12.33 26 -12.66 26 -13 26 C-13.125 23.625 -13.125 23.625 -13 21 C-12.34 20.34 -11.68 19.68 -11 19 C-11.33 18.01 -11.66 17.02 -12 16 C-11.67 15.34 -11.34 14.68 -11 14 C-10.01 14 -9.02 14 -8 14 C-7.67 13.01 -7.34 12.02 -7 11 C-6.34 11 -5.68 11 -5 11 C-4.9175 10.29875 -4.835 9.5975 -4.75 8.875 C-3.82972275 5.34727053 -2.11873023 2.93888386 0 0 Z " fill="#0B92F5" transform="translate(121,104)"/>
<path d="M0 0 C2.38397483 2.78869613 4.18482309 5.82069014 6 9 C6.61875 9.969375 7.2375 10.93875 7.875 11.9375 C9 14 9 14 9 16 C7.35 15.34 5.7 14.68 4 14 C4.33 12.68 4.66 11.36 5 10 C4.34 10 3.68 10 3 10 C-1 3.25 -1 3.25 -1 1 C-5.47427924 0.91051442 -9.60563789 1.14256349 -14 2 C-9.74128522 -2.897522 -5.81440731 -2.60645845 0 0 Z " fill="#4FEAEE" transform="translate(132,52)"/>
<path d="M0 0 C1.5625 1.0625 1.5625 1.0625 3 3 C3 9.26404734 0.21957494 13.76076551 -3 19 C-4.04449911 15.86650268 -3.93423645 15.01031744 -3 12 C-2.34 12 -1.68 12 -1 12 C-0.79913557 8.28400809 -0.8480563 7.22791555 -3 4 C-2.01 3.34 -1.02 2.68 0 2 C-0.66 1.67 -1.32 1.34 -2 1 C-1.34 0.67 -0.68 0.34 0 0 Z M-3 6 C-2.67 6.66 -2.34 7.32 -2 8 C-2.66 7.67 -3.32 7.34 -4 7 C-3.67 6.67 -3.34 6.34 -3 6 Z " fill="#15AEFE" transform="translate(156,95)"/>
<path d="M0 0 C2.29038506 1.9468273 3.63466117 4.02066476 5.0625 6.625 C6.60541916 10.03314359 6.60541916 10.03314359 9 11 C10.74150118 15.52790307 10.747204 20.21036804 8.8828125 24.67578125 C7.64293532 27.15203314 6.35919341 29.5874317 5 32 C4.34 32 3.68 32 3 32 C3.9500942 28.85738073 4.80926206 26.27551036 6.6875 23.5625 C8.07867731 20.84639191 8.35749201 19.17381045 7.79296875 16.171875 C6.27298284 12.00876089 3.83281622 8.32143768 1.49609375 4.57421875 C0 2 0 2 0 0 Z " fill="#1555F4" transform="translate(150,82)"/>
<path d="M0 0 C0.99 0.66 1.98 1.32 3 2 C0.55445823 8.48700048 -2.13459112 14.66610276 -8.625 17.6875 C-12.14488257 18.01341505 -13.06304403 17.67368015 -16 16 C-15.04287109 15.81824219 -15.04287109 15.81824219 -14.06640625 15.6328125 C-13.24011719 15.46523437 -12.41382812 15.29765625 -11.5625 15.125 C-10.32693359 14.88136719 -10.32693359 14.88136719 -9.06640625 14.6328125 C-8.38449219 14.42398438 -7.70257813 14.21515625 -7 14 C-6.67 13.34 -6.34 12.68 -6 12 C-5.34 12 -4.68 12 -4 12 C-3.87625 11.401875 -3.7525 10.80375 -3.625 10.1875 C-3 8 -3 8 -1 5 C-0.61500109 3.34450469 -0.27206865 1.6777567 0 0 Z " fill="#49EAF0" transform="translate(137,133)"/>
<path d="M0 0 C1.04449911 3.13349732 0.93423645 3.98968256 0 7 C-0.66 7 -1.32 7 -2 7 C-2.103125 7.515625 -2.20625 8.03125 -2.3125 8.5625 C-3.24263866 11.86026435 -4.61395512 14.86633332 -6 18 C-6.99 18 -7.98 18 -9 18 C-9.33 17.01 -9.66 16.02 -10 15 C-9.58105469 14.63261719 -9.16210938 14.26523438 -8.73046875 13.88671875 C-6.46532615 11.4170486 -4.97035603 8.72156812 -3.3125 5.8125 C-2.68988281 4.72582031 -2.06726563 3.63914063 -1.42578125 2.51953125 C-0.95527344 1.68808594 -0.48476562 0.85664062 0 0 Z " fill="#3FE4F5" transform="translate(117,54)"/>
<path d="M0 0 C1 2 1 2 0.0625 5.125 C-0.288125 6.07375 -0.63875 7.0225 -1 8 C-1.66 8 -2.32 8 -3 8 C-2.2812193 15.04207705 -2.2812193 15.04207705 -1 22 C-1.66 20.68 -2.32 19.36 -3 18 C-3.66 18 -4.32 18 -5 18 C-6.11074404 13.71570156 -6.61306271 11.33176085 -4.73046875 7.2421875 C-3.22572481 4.76834618 -1.67131668 2.36406534 0 0 Z " fill="#1E9CFE" transform="translate(98,88)"/>
<path d="M0 0 C0.33 0.99 0.66 1.98 1 3 C-0.32 2.67 -1.64 2.34 -3 2 C-3.598125 2.804375 -4.19625 3.60875 -4.8125 4.4375 C-7 7 -7 7 -10 8 C-10.625 6.1875 -10.625 6.1875 -11 4 C-7.95841042 -0.56238437 -5.1474794 -0.11438843 0 0 Z " fill="#224EF3" transform="translate(153,67)"/>
<path d="M0 0 C0.33 0 0.66 0 1 0 C1.66 3.3 2.32 6.6 3 10 C3.99 10 4.98 10 6 10 C6.33 12.31 6.66 14.62 7 17 C6.01 17 5.02 17 4 17 C-1.05908096 7.1619256 -1.05908096 7.1619256 -0.8125 2.3125 C-0.544375 1.549375 -0.27625 0.78625 0 0 Z " fill="#546FE8" transform="translate(76,96)"/>
<path d="M0 0 C0.93065133 2.60582371 1.14917407 3.64198224 0.0625 6.25 C-0.4634375 7.11625 -0.4634375 7.11625 -1 8 C-2.66666667 8 -4.33333333 8 -6 8 C-6 5.69 -6 3.38 -6 1 C-4.7934375 1.0309375 -4.7934375 1.0309375 -3.5625 1.0625 C-1.06645115 1.29633621 -1.06645115 1.29633621 0 0 Z " fill="#18E8F9" transform="translate(142,127)"/>
<path d="M0 0 C0.99 0.33 1.98 0.66 3 1 C2 4 2 4 -0.125 5.25 C-3.69966583 6.18252152 -6.40516483 5.70486964 -10 5 C-10 4.34 -10 3.68 -10 3 C-6.7 3 -3.4 3 0 3 C0 2.01 0 1.02 0 0 Z " fill="#5F74E1" transform="translate(156,130)"/>
<path d="M0 0 C4.455 0.99 4.455 0.99 9 2 C9 2.66 9 3.32 9 4 C3.55106131 5.19876651 0.77830905 4.91360308 -4 2 C-3.34 1.67 -2.68 1.34 -2 1 C-1.34 1.33 -0.68 1.66 0 2 C0 1.34 0 0.68 0 0 Z " fill="#5E77E5" transform="translate(96,131)"/>
<path d="M0 0 C1.40980321 4.22940963 -0.07526585 6.08179119 -2 10 C-3.6875 12.4375 -3.6875 12.4375 -5 14 C-5.125 11.625 -5.125 11.625 -5 9 C-4.34 8.34 -3.68 7.68 -3 7 C-3.33 6.01 -3.66 5.02 -4 4 C-3.67 3.34 -3.34 2.68 -3 2 C-2.01 2 -1.02 2 0 2 C0 1.34 0 0.68 0 0 Z " fill="#156CF4" transform="translate(113,116)"/>
<path d="M0 0 C0.33 0 0.66 0 1 0 C1.41302125 4.40296243 0.46326418 6.30256189 -2.3125 9.6875 C-2.92738281 10.45449219 -3.54226562 11.22148438 -4.17578125 12.01171875 C-6 14 -6 14 -9 16 C-7.30403824 12.48876259 -5.38971877 9.12460782 -3.4375 5.75 C-2.81746094 4.67234375 -2.19742188 3.5946875 -1.55859375 2.484375 C-1.04425781 1.66453125 -0.52992188 0.8446875 0 0 Z " fill="#0D91F5" transform="translate(137,80)"/>
<path d="M0 0 C1.10844919 3.32534757 0.84454356 5.62182575 0 9 C0.66 9 1.32 9 2 9 C2.33 10.98 2.66 12.96 3 15 C-0.34695108 12.29056342 -1.74064086 9.05793501 -3 5 C-1.6875 2.0625 -1.6875 2.0625 0 0 Z " fill="#42E0F6" transform="translate(111,125)"/>
<path d="M0 0 C2.68807495 3.38552143 3.82373266 5.59331645 4 10 C2.5625 13.375 2.5625 13.375 1 16 C-0.50156874 12.99686252 -0.09281204 10.20932478 -0.0625 6.875 C-0.05347656 5.59367187 -0.04445312 4.31234375 -0.03515625 2.9921875 C-0.02355469 2.00476563 -0.01195312 1.01734375 0 0 Z " fill="#556CDE" transform="translate(172,92)"/>
<path d="M0 0 C0.33 0.66 0.66 1.32 1 2 C-0.43359375 4.8203125 -0.43359375 4.8203125 -2.4375 8.125 C-3.09621094 9.22070312 -3.75492187 10.31640625 -4.43359375 11.4453125 C-4.95050781 12.28835937 -5.46742187 13.13140625 -6 14 C-7.43088528 11.13822943 -6.59991697 9.06624227 -6 6 C-5.01 6 -4.02 6 -3 6 C-3.33 4.68 -3.66 3.36 -4 2 C-2.68 1.34 -1.36 0.68 0 0 Z " fill="#1354F0" transform="translate(104,75)"/>
<path d="M0 0 C0.99 0.33 1.98 0.66 3 1 C2.505 1.37125 2.01 1.7425 1.5 2.125 C-0.59755514 4.74694393 -0.21743835 6.73842472 0 10 C-1.66666667 10 -3.33333333 10 -5 10 C-5 9.34 -5 8.68 -5 8 C-4.34 8 -3.68 8 -3 8 C-2.87625 6.865625 -2.7525 5.73125 -2.625 4.5625 C-2.41875 3.386875 -2.2125 2.21125 -2 1 C-1.34 0.67 -0.68 0.34 0 0 Z " fill="#07EEF7" transform="translate(120,53)"/>
<path d="M0 0 C0.2475 0.61875 0.495 1.2375 0.75 1.875 C1.80173787 4.15546283 1.80173787 4.15546283 4 4.8125 C6 6 6 6 7.25 9.625 C7.4975 10.73875 7.745 11.8525 8 13 C7.34 13 6.68 13 6 13 C4 10 4 10 4 6 C2.68 5.34 1.36 4.68 0 4 C0 2.68 0 1.36 0 0 Z " fill="#1A63FA" transform="translate(94,106)"/>
<path d="M0 0 C-1.65 0.33 -3.3 0.66 -5 1 C-5 1.66 -5 2.32 -5 3 C-5.639375 3.28875 -6.27875 3.5775 -6.9375 3.875 C-9.15206079 4.82823451 -9.15206079 4.82823451 -10 7 C-10.66 7 -11.32 7 -12 7 C-11.02629214 3.39728091 -10.3100846 2.20222909 -7.125 0.125 C-4.03945364 -0.98579669 -2.94961915 -1.24791579 0 0 Z " fill="#6F82E5" transform="translate(102,66)"/>
<path d="M0 0 C0.33 0 0.66 0 1 0 C1.21192221 5.19209404 0.5912689 9.126739 -1 14 C-1.33 14 -1.66 14 -2 14 C-2.05437607 12.41705218 -2.09296271 10.83355744 -2.125 9.25 C-2.14820312 8.36828125 -2.17140625 7.4865625 -2.1953125 6.578125 C-1.99139502 3.8864142 -1.36551721 2.30095026 0 0 Z " fill="#3B56ED" transform="translate(79,90)"/>
<path d="M0 0 C0.99 0.33 1.98 0.66 3 1 C3 1.66 3 2.32 3 3 C2.34 3 1.68 3 1 3 C1 4.32 1 5.64 1 7 C-0.98 7.99 -0.98 7.99 -3 9 C-2.69181644 7.68647977 -2.37832335 6.37420428 -2.0625 5.0625 C-1.88847656 4.33160156 -1.71445313 3.60070312 -1.53515625 2.84765625 C-1 1 -1 1 0 0 Z " fill="#0DDAFD" transform="translate(114,120)"/>
<path d="M0 0 C0.66666667 2.66666667 1.33333333 5.33333333 2 8 C0.68 8.33 -0.64 8.66 -2 9 C-2.25 3.375 -2.25 3.375 0 0 Z " fill="#1971FA" transform="translate(140,75)"/>
<path d="M0 0 C3 3.75 3 3.75 3 6 C2.01 6.33 1.02 6.66 0 7 C-0.99 6.01 -1.98 5.02 -3 4 C-2.67 3.34 -2.34 2.68 -2 2 C-1.34 2 -0.68 2 0 2 C0 1.34 0 0.68 0 0 Z " fill="#2348FC" transform="translate(147,126)"/>
<path d="M0 0 C1.5625 1.0625 1.5625 1.0625 3 3 C2.6875 6.6875 2.6875 6.6875 2 10 C1.67 10 1.34 10 1 10 C0.8046875 7.94921875 0.609375 5.8984375 0.4140625 3.84765625 C0.27742187 3.23792969 0.14078125 2.62820312 0 2 C-0.66 1.67 -1.32 1.34 -2 1 C-1.34 0.67 -0.68 0.34 0 0 Z " fill="#1F9AFE" transform="translate(156,95)"/>
<path d="M0 0 C0.66 0 1.32 0 2 0 C2.33 1.98 2.66 3.96 3 6 C1.35 6.66 -0.3 7.32 -2 8 C-1.34 5.36 -0.68 2.72 0 0 Z " fill="#0CDBFE" transform="translate(107,72)"/>
<path d="M0 0 C0.99 0 1.98 0 3 0 C3.474375 1.11375 3.94875 2.2275 4.4375 3.375 C5.25306463 5.26710994 6.07856355 7.15712709 7 9 C3.17475764 7.549046 1.80909034 5.61818068 0 2 C0 1.34 0 0.68 0 0 Z " fill="#5BEAEE" transform="translate(114,140)"/>
<path d="M0 0 C1.04449911 3.13349732 0.93423645 3.98968256 0 7 C-0.66 7 -1.32 7 -2 7 C-2 7.66 -2 8.32 -2 9 C-2.66 9 -3.32 9 -4 9 C-2.94124926 5.59687262 -1.99097846 2.98646769 0 0 Z " fill="#53EAED" transform="translate(117,54)"/>
<path d="M0 0 C0.66 1.32 1.32 2.64 2 4 C1.01 4.66 0.02 5.32 -1 6 C-1.66 4.68 -2.32 3.36 -3 2 C-2.01 1.34 -1.02 0.68 0 0 Z " fill="#3456F3" transform="translate(106,128)"/>
<path d="M0 0 C1.9375 0.6875 1.9375 0.6875 4 2 C4.75 4.625 4.75 4.625 5 7 C2.5 5.1875 2.5 5.1875 0 3 C0 2.01 0 1.02 0 0 Z " fill="#2360FE" transform="translate(102,119)"/>
<path d="M0 0 C1.32 1.65 2.64 3.3 4 5 C3.34 6.32 2.68 7.64 2 9 C0.50178941 5.62902617 0 3.79557881 0 0 Z " fill="#5970E6" transform="translate(164,78)"/>
<path d="M0 0 C0.33 0.99 0.66 1.98 1 3 C0.67 3.66 0.34 4.32 0 5 C0.66 5.33 1.32 5.66 2 6 C0.35 6.33 -1.3 6.66 -3 7 C-1.125 2.25 -1.125 2.25 0 0 Z " fill="#5271E9" transform="translate(86,78)"/>
</svg>
